HIERARCHY
ROOT __0
{
	OFFSET 0.0 0.0 0.0
	CHANNELS 0
	JOINT IKLegTarget.L
	{
		OFFSET -0.211553 -0.070982 0.073421
		CHANNELS 6 Xposition Yposition Zposition Xrotation Yrotation Zrotation
		End Site
		{
			OFFSET 0.000000 -0.191920 0.000000
		}
	}
	JOINT IKLPole.L
	{
		OFFSET -0.192917 0.630369 0.778434
		CHANNELS 6 Xposition Yposition Zposition Xrotation Yrotation Zrotation
		End Site
		{
			OFFSET 0.000000 0.288052 -0.000000
		}
	}
	JOINT IKLegTarget.R
	{
		OFFSET 0.211553 -0.070982 0.073421
		CHANNELS 6 Xposition Yposition Zposition Xrotation Yrotation Zrotation
		End Site
		{
			OFFSET 0.000000 -0.191920 0.000000
		}
	}
	JOINT IKLPole.R
	{
		OFFSET 0.192917 0.630369 0.778434
		CHANNELS 6 Xposition Yposition Zposition Xrotation Yrotation Zrotation
		End Site
		{
			OFFSET -0.000000 0.288052 -0.000000
		}
	}
	JOINT hip
	{
		OFFSET 0.000000 0.000000 1.000000
		CHANNELS 6 Xposition Yposition Zposition Xrotation Yrotation Zrotation
		JOINT spine
		{
			OFFSET 0.000000 0.010257 0.185956
			CHANNELS 3 Xrotation Yrotation Zrotation
			JOINT spine.001
			{
				OFFSET 0.000000 -0.047000 0.404963
				CHANNELS 3 Xrotation Yrotation Zrotation
				JOINT Head
				{
					OFFSET 0.000000 0.038275 0.295777
					CHANNELS 3 Xrotation Yrotation Zrotation
					End Site
					{
						OFFSET 0.000000 0.000000 0.485327
					}
				}
				JOINT shoulder.L
				{
					OFFSET -0.195757 0.038275 0.182789
					CHANNELS 6 Xposition Yposition Zposition Xrotation Yrotation Zrotation
					JOINT upperArm.L
					{
						OFFSET -0.172586 -0.038673 0.000001
						CHANNELS 3 Xrotation Yrotation Zrotation
						JOINT lowArm.L
						{
							OFFSET -0.288563 0.000000 0.000000
							CHANNELS 3 Xrotation Yrotation Zrotation
							JOINT hand.L
							{
								OFFSET -0.283371 0.000000 0.000000
								CHANNELS 3 Xrotation Yrotation Zrotation
								JOINT finger.L
								{
									OFFSET -0.076868 0.000000 0.000000
									CHANNELS 3 Xrotation Yrotation Zrotation
									End Site
									{
										OFFSET -0.068083 0.000000 0.000000
									}
								}
								JOINT thump.L
								{
									OFFSET -0.040973 0.025801 0.000000
									CHANNELS 6 Xposition Yposition Zposition Xrotation Yrotation Zrotation
									End Site
									{
										OFFSET 0.000000 0.101950 0.000000
									}
								}
							}
						}
					}
				}
				JOINT shoulder.R
				{
					OFFSET 0.195757 0.038275 0.182789
					CHANNELS 6 Xposition Yposition Zposition Xrotation Yrotation Zrotation
					JOINT upperArm.R
					{
						OFFSET 0.172586 -0.038673 0.000001
						CHANNELS 3 Xrotation Yrotation Zrotation
						JOINT lowArm.R
						{
							OFFSET 0.288563 0.000000 0.000000
							CHANNELS 3 Xrotation Yrotation Zrotation
							JOINT hand.R
							{
								OFFSET 0.283371 0.000000 0.000000
								CHANNELS 3 Xrotation Yrotation Zrotation
								JOINT finger.R
								{
									OFFSET 0.076868 0.000000 0.000000
									CHANNELS 3 Xrotation Yrotation Zrotation
									End Site
									{
										OFFSET 0.068083 0.000000 0.000000
									}
								}
								JOINT thump.R
								{
									OFFSET 0.040973 0.025801 0.000000
									CHANNELS 6 Xposition Yposition Zposition Xrotation Yrotation Zrotation
									End Site
									{
										OFFSET 0.000000 0.101950 0.000000
									}
								}
							}
						}
					}
				}
			}
		}
		JOINT upperLeg.L
		{
			OFFSET -0.154966 -0.029210 -0.029855
			CHANNELS 6 Xposition Yposition Zposition Xrotation Yrotation Zrotation
			JOINT lowerLeg.L
			{
				OFFSET -0.037951 0.070906 -0.543962
				CHANNELS 3 Xrotation Yrotation Zrotation
				JOINT foot.L
				{
					OFFSET -0.018636 -0.071669 -0.366804
					CHANNELS 3 Xrotation Yrotation Zrotation
					End Site
					{
						OFFSET -0.004380 0.218937 -0.029225
					}
				}
			}
		}
		JOINT upperLeg.R
		{
			OFFSET 0.154966 -0.029210 -0.029855
			CHANNELS 6 Xposition Yposition Zposition Xrotation Yrotation Zrotation
			JOINT lowerLeg.R
			{
				OFFSET 0.037951 0.070906 -0.543962
				CHANNELS 3 Xrotation Yrotation Zrotation
				JOINT foot.R
				{
					OFFSET 0.018636 -0.071669 -0.366804
					CHANNELS 3 Xrotation Yrotation Zrotation
					End Site
					{
						OFFSET 0.004380 0.218937 -0.029225
					}
				}
			}
		}
	}
}
MOTION
Frames: 4
Frame Time: 0.041667
-0.211553 -0.237083 0.104583 -16.199896 0.000000 0.000000 -0.192917 0.630369 0.778434 0.000000 0.000000 -0.000000 0.211553 0.027865 0.269712 -25.189044 0.000000 0.000000 0.192917 0.630369 0.778434 0.000000 0.000000 0.000000 0.000000 -0.005008 0.959936 -3.705901 0.000000 -0.000000 0.000001 0.000000 -0.000000 -0.000001 -0.000000 -0.000000 -0.000000 -0.000000 0.000000 -0.195757 0.038275 0.182790 -2.007611 -0.285626 -9.064823 19.818513 -5.929555 -79.816088 89.999989 0.000004 -0.000008 0.000000 -0.000000 -0.000000 0.000000 -0.000000 -0.000000 -0.040973 0.025801 -0.000000 0.000001 -0.000000 -0.000000 0.195757 0.038275 0.182790 -2.873178 0.310245 12.934363 -20.282225 4.664309 71.993233 62.866106 -11.793059 7.223832 0.000002 0.000002 0.000000 0.000003 0.000000 0.000001 0.040973 0.025801 -0.000000 0.000005 0.000001 0.000003 -0.154966 -0.029211 -0.029855 1.136458 1.430206 2.421919 -27.399574 -1.935694 1.266308 13.897727 0.415441 -2.012804 0.154966 -0.029210 -0.029855 35.895636 -3.071772 0.948013 -70.761887 5.536962 -1.128283 13.655011 -1.852597 0.850004 
-0.211553 -0.271229 0.112354 -17.735131 0.000000 0.000000 -0.192917 0.630369 0.778434 0.000000 0.000000 -0.000000 0.211553 0.092994 0.266790 -19.235090 0.000000 0.000000 0.192917 0.630369 0.778434 0.000000 0.000000 0.000000 0.000000 -0.004145 0.966837 -3.705901 0.000000 -0.000000 0.000001 0.000000 -0.000000 -0.000001 -0.000000 -0.000000 -0.000000 -0.000000 0.000000 -0.195757 0.038275 0.182789 -2.007611 -0.285626 -9.064823 23.623319 -4.526753 -79.895339 89.999989 0.000004 -0.000010 -0.000000 -0.000000 0.000001 0.000001 -0.000000 0.000001 -0.040973 0.025801 0.000000 0.000000 -0.000000 0.000000 0.195757 0.038275 0.182789 -2.873178 0.310245 12.934363 -25.085854 5.698620 72.427319 68.309883 -9.147837 6.213485 -0.000004 0.000001 -0.000002 -0.000003 0.000000 0.000001 0.040973 0.025801 -0.000000 -0.000003 0.000000 0.000002 -0.154966 -0.029210 -0.029855 -2.203815 1.306254 2.628450 -24.664873 -1.717847 1.183260 12.978836 0.261108 -1.789413 0.154966 -0.029210 -0.029855 40.019998 -2.739530 1.100716 -67.220502 5.258382 -1.241913 11.906894 -1.958268 1.126481 
-0.211553 -0.303525 0.120407 -19.365359 0.000000 0.000000 -0.192917 0.630369 0.778434 0.000000 0.000000 -0.000000 0.211553 0.155455 0.263338 -13.584114 0.000000 0.000000 0.192917 0.630369 0.778434 0.000000 0.000000 0.000000 0.000000 -0.003318 0.973456 -3.705901 0.000000 -0.000000 0.000001 0.000000 -0.000000 -0.000001 -0.000000 -0.000000 -0.000000 -0.000000 0.000000 -0.195757 0.038275 0.182789 -2.007611 -0.285626 -9.064823 27.149848 -3.130647 -80.060226 89.999989 0.000004 -0.000009 0.000000 0.000000 0.000003 0.000000 -0.000000 0.000001 -0.040974 0.025801 0.000000 0.000000 0.000000 0.000000 0.195757 0.038275 0.182789 -2.873178 0.310245 12.934363 -29.675574 6.646487 72.921108 73.204267 -6.864043 5.100825 0.000002 0.000000 -0.000001 -0.000002 -0.000000 -0.000002 0.040973 0.025801 -0.000000 -0.000003 -0.000000 -0.000003 -0.154966 -0.029211 -0.029855 -5.496222 1.163535 2.833119 -21.675503 -1.484547 1.080709 11.664967 0.105307 -1.533630 0.154966 -0.029210 -0.029855 43.201961 -2.411690 1.136736 -62.559963 4.881841 -1.364740 9.672726 -1.988909 1.407002 
-0.211553 -0.333613 0.128680 -21.094098 0.000000 0.000000 -0.192917 0.630369 0.778434 0.000000 0.000000 -0.000000 0.211553 0.213914 0.259312 -8.371376 0.000000 0.000000 0.192917 0.630369 0.778434 0.000000 0.000000 0.000000 0.000000 -0.002544 0.979650 -3.705901 0.000000 -0.000000 0.000001 0.000000 -0.000000 -0.000001 -0.000000 -0.000000 -0.000000 -0.000000 0.000000 -0.195757 0.038275 0.182790 -2.007611 -0.285626 -9.064823 30.348166 -1.793124 -80.292589 89.999989 0.000004 -0.000009 -0.000000 0.000000 0.000002 -0.000000 0.000000 0.000002 -0.040973 0.025800 0.000000 0.000000 0.000000 0.000005 0.195757 0.038275 0.182790 -2.873178 0.310245 12.934363 -33.944196 7.487134 73.446486 77.513556 -4.946145 3.971545 0.000001 0.000001 -0.000004 0.000000 0.000000 0.000001 0.040974 0.025801 -0.000000 0.000001 0.000001 0.000001 -0.154966 -0.029210 -0.029855 -8.684428 1.007860 3.031118 -18.539218 -1.245892 0.960208 10.004232 -0.051396 -1.251427 0.154966 -0.029210 -0.029855 45.388670 -2.098592 1.072763 -56.993291 4.420546 -1.470625 7.084575 -1.945832 1.681950 
